<svg width="60" height="54" viewBox="0 0 60 54" fill="none" xmlns="http://www.w3.org/2000/svg">
    <path d="M4.61132 14.0032C8.99623 10.6073 13.9016 8.44847 18.9483 7.20909C24.1167 5.93903 29.4698 5.76552 34.6825 6.71334C39.8122 7.64701 44.8391 9.6902 49.2985 13.0271C51.5725 14.728 53.7391 16.7192 55.454 19.2664C57.1925 21.8479 58.5011 24.951 59.0347 28.2738C59.5664 31.5882 59.2053 35.0207 57.892 37.9881C56.574 40.9673 54.4886 43.3021 52.2278 45.1375C49.7237 47.1701 46.95 48.6987 44.1283 49.8955C41.1255 51.1691 38.0086 52.0391 34.8569 52.4711C28.6373 53.3245 22.1415 52.582 16.2453 49.8908C10.7404 47.379 5.62293 42.6458 3.41681 35.6356C2.40331 32.4168 2.09973 28.9064 2.65881 25.5082C3.21317 22.1406 4.46613 18.995 6.18201 16.3191C7.95822 13.5476 10.1728 11.3097 12.6637 9.6182C15.394 7.76504 18.3826 6.57642 21.4222 5.83044C24.4523 5.08563 27.5503 4.76812 30.6351 4.71854C33.7529 4.66896 36.8877 4.93809 39.9404 5.75843C42.9083 6.55636 45.8046 7.87363 48.3859 9.89559C50.6957 11.7051 52.7227 14.1295 54.2538 16.9529C55.7708 19.7492 56.838 22.9869 57.0935 26.3698C57.3556 29.8306 56.7381 33.2667 55.4578 36.3379C52.7859 42.7485 47.758 47.3165 42.4718 49.918C36.9942 52.6151 30.982 53.4224 25.1405 52.7496C19.5111 52.1004 13.845 49.9829 9.21307 45.8327C7.039 43.8852 5.0912 41.4678 3.64779 38.6396C2.37974 36.1562 1.49446 33.3894 1.04381 30.4964C0.159476 24.8247 1.02496 18.7778 3.63365 13.982C6.44504 8.81202 11.0685 5.86113 15.7032 3.97019C20.8122 1.88568 26.236 0.920151 31.6015 0.855231C32.8007 0.841067 33.9971 0.88356 35.1935 0.962644C36.322 1.03701 37.4628 1.09484 38.5819 1.30259C38.91 1.36396 39.0514 0.734835 38.7205 0.673456C37.5231 0.451549 36.3267 0.209576 35.1162 0.113967C33.8368 0.012456 32.5527 -0.017053 31.2715 0.00891489C28.5129 0.0643917 25.7562 0.374826 23.0315 0.922511C20.2984 1.47138 17.5897 2.26694 14.9688 3.38946C12.5439 4.42817 10.17 5.73719 8.0195 7.49474C5.935 9.19682 4.1371 11.384 2.78608 14.0068C1.50012 16.5032 0.640298 19.3443 0.25187 22.2728C-0.542901 28.2631 0.565818 34.5462 3.25842 39.5922C6.4441 45.5624 11.5663 49.5178 16.9458 51.6944C22.6176 53.989 28.7797 54.5284 34.6721 53.5015C40.6164 52.4652 46.4409 49.6359 51.0389 44.7315C55.4314 40.0466 58.6397 33.1557 57.8826 25.7324C57.1633 18.6763 53.3902 12.4239 48.6009 8.78605C43.1544 4.6489 36.6105 3.50041 30.3381 3.64442C24.0243 3.78842 17.4606 5.00183 11.8868 8.92887C6.94472 12.4109 2.8172 18.4201 1.78861 25.5436C1.27385 29.1094 1.60383 32.765 2.70783 36.1125C3.82692 39.506 5.61445 42.5289 7.82152 44.9392C12.6269 50.1871 19.0765 52.5702 25.3112 53.4095C31.7768 54.2794 38.414 53.3363 44.562 50.6852C47.4403 49.4435 50.28 47.8689 52.8236 45.7607C55.1495 43.832 57.2849 41.3816 58.6133 38.2702C59.9313 35.1836 60.2905 31.6661 59.7729 28.2395C59.2515 24.7905 57.9034 21.5799 56.1337 18.8816C54.4028 16.2424 52.1901 14.1756 49.868 12.4145C47.6034 10.697 45.1814 9.30777 42.6802 8.22656C37.5806 6.02165 32.1398 5.10334 26.7546 5.31462C21.4127 5.52354 16.0907 6.81958 11.1439 9.37269C8.82276 10.5708 6.58458 12.0037 4.48027 13.7223C4.34074 13.8368 4.46802 14.1154 4.61132 14.0044V14.0032Z" fill="white"/>
</svg>