<svg width="120" height="120" viewBox="0 0 120 120" fill="none" xmlns="http://www.w3.org/2000/svg">
    <path d="M60.1474 108.855L59.5343 108.274C58.1638 106.917 25.5977 74.901 25.5977 48.2728C25.5977 27.7687 41.0693 11.1406 60.1113 11.1406C79.1533 11.1406 94.661 27.7687 94.661 48.2341C94.661 73.8933 62.1309 106.839 60.7244 108.235L60.1113 108.855H60.1474ZM60.1474 13.0786C42.0791 13.0786 27.4009 28.854 27.4009 48.2341C27.4009 72.0328 55.5672 101.568 60.1113 106.18C64.6193 101.452 92.8578 71.1801 92.8578 48.2341C92.8578 28.854 78.1796 13.0786 60.1113 13.0786H60.1474Z" fill="black" stroke="black" stroke-width="0.5"></path>
    <path d="M60.22 70.3683L59.7512 70.2133C43.1255 60.6783 40.4207 50.3681 40.3125 45.0967C40.2043 40.0579 42.3681 35.3679 45.7943 33.1586C47.5614 32.0345 49.3286 31.4531 51.1318 31.4531C55.6759 31.4531 58.9578 35.1741 60.1479 36.7245C61.338 35.1741 64.5838 31.4531 69.164 31.4531C70.9311 31.4531 72.7344 32.0345 74.5015 33.1586C77.9637 35.3679 80.1276 40.0579 79.9833 45.0967C79.8751 50.3681 77.1703 60.6783 60.5085 70.2133L60.2561 70.3683H60.22ZM51.1318 32.6159C49.545 32.6159 47.9581 33.1198 46.3713 34.1663C43.2337 36.1819 41.2862 40.4455 41.3944 45.0579C41.5026 50.058 44.0992 59.8643 60.1479 69.0892C76.1965 59.8255 78.7932 50.058 78.9014 45.0579C79.0096 40.4455 77.0621 36.1431 73.9245 34.1276C72.3377 33.1198 70.7508 32.5772 69.164 32.5772C64.151 32.5772 60.7249 37.771 60.5807 38.0036L60.1479 38.7013L59.7151 38.0036C59.3545 37.4609 56.0365 32.5772 51.1318 32.5772V32.6159Z" fill="black" stroke="black"></path>
</svg>