<svg width="120" height="120" viewBox="0 0 120 120" fill="none" xmlns="http://www.w3.org/2000/svg">
    <g clip-path="url(#clip0_987_2441)">
        <path d="M20.9359 72.7607C20.644 72.7607 20.3845 72.6637 20.125 72.502C19.671 72.1462 19.4439 71.564 19.6385 70.9817L22.2981 62.8631L15.3573 57.8497C14.9032 57.5262 14.6761 56.9117 14.8707 56.3618C15.0654 55.8119 15.5519 55.4238 16.1681 55.4238H24.7306L27.3902 47.3052C27.5524 46.7553 28.1038 46.3672 28.6876 46.3672C29.2714 46.3672 29.7903 46.7553 29.9525 47.3052L32.6121 55.4238H41.1746C41.7584 55.4238 42.2773 55.8119 42.4719 56.3618C42.6341 56.9117 42.472 57.5262 41.9854 57.8497L35.0446 62.8631L37.7042 70.9817C37.8663 71.5316 37.7042 72.1462 37.2177 72.502C36.7312 72.8578 36.1149 72.8578 35.6284 72.502L28.6876 67.4561L21.7467 72.502C21.5197 72.6637 21.2278 72.7607 20.9359 72.7607ZM28.6551 64.4804C28.9146 64.4804 29.2065 64.5774 29.4335 64.7392L33.8121 67.909L32.158 62.7985C31.9958 62.2486 32.158 61.634 32.6445 61.2782L36.9906 58.1084H31.6066C31.0228 58.1084 30.5039 57.7203 30.3093 57.2028L28.6551 52.0599L27.001 57.2028C26.8064 57.7526 26.3199 58.1084 25.7037 58.1084H20.3196L24.6658 61.2782C25.1198 61.634 25.3469 62.2162 25.1523 62.7985L23.4982 67.909L27.8767 64.7392C28.1038 64.5774 28.3957 64.4804 28.6876 64.4804H28.6551Z" fill="black"></path>
        <path d="M50.0957 110.573C49.7389 110.573 49.4145 110.444 49.1551 110.185C48.6361 109.667 48.6361 108.794 49.1551 108.276C65.6963 91.8128 42.7332 66.422 42.5061 66.1955C42.0196 65.6457 42.0521 64.8047 42.6034 64.2872C43.1548 63.7697 43.9981 63.802 44.517 64.3842C44.7765 64.643 69.4262 91.9098 51.0687 110.185C50.8092 110.444 50.4524 110.573 50.1281 110.573H50.0957Z" fill="black"></path>
        <path d="M39.0646 110.575C38.87 110.575 38.7079 110.543 38.5132 110.446C37.8321 110.154 37.5402 109.346 37.8321 108.667C46.0703 90.2299 30.2102 80.0089 29.5291 79.5884C28.8804 79.2003 28.7182 78.3593 29.1074 77.7447C29.4966 77.1302 30.3399 76.9038 30.9562 77.3242C31.1508 77.4213 49.4759 89.1625 40.2971 109.766C40.0701 110.284 39.5836 110.575 39.0646 110.575Z" fill="black"></path>
        <path d="M25.8319 110.571C25.6049 110.571 25.3778 110.506 25.1508 110.377C24.5021 110.021 24.2751 109.18 24.6643 108.566C27.3563 103.876 28.1347 99.6062 27.032 95.8865C25.5076 90.8407 20.8695 88.4795 20.8371 88.4471C20.156 88.0913 19.8965 87.2827 20.2209 86.6358C20.5452 85.9566 21.3561 85.6978 22.0372 86.0213C22.2642 86.1183 27.7455 88.9 29.5942 95.0779C30.9565 99.5415 30.0808 104.523 26.9995 109.86C26.7401 110.28 26.286 110.539 25.8319 110.539V110.571Z" fill="black"></path>
        <path d="M12.6326 86.4133C9.45408 86.4133 6.85938 83.8257 6.85938 80.6559C6.85938 77.486 9.45408 74.8984 12.6326 74.8984C15.8111 74.8984 18.3734 77.4537 18.3734 80.6559C18.3734 83.858 15.8111 86.4133 12.6326 86.4133ZM12.6326 77.6154C10.946 77.6154 9.58382 78.9739 9.58382 80.6559C9.58382 82.3378 10.946 83.6963 12.6326 83.6963C14.3192 83.6963 15.6814 82.3378 15.6814 80.6559C15.6814 78.9739 14.3192 77.6154 12.6326 77.6154Z" fill="black"></path>
        <path d="M17.0438 96.0469H12.6328V100.446H17.0438V96.0469Z" fill="black"></path>
        <path d="M99.0658 72.7607C98.8063 72.7607 98.5144 72.6637 98.2874 72.502L91.3465 67.4561L84.4057 72.502C83.9516 72.8578 83.3029 72.8578 82.8164 72.502C82.3299 72.1462 82.1353 71.564 82.3299 70.9817L84.9895 62.8631L78.0487 57.8497C77.5946 57.5262 77.3676 56.9117 77.5622 56.3618C77.7243 55.8119 78.2433 55.4238 78.8595 55.4238H87.422L90.0816 47.3052C90.2438 46.7553 90.7627 46.3672 91.3465 46.3672C91.9303 46.3672 92.4493 46.7553 92.6439 47.3052L95.3035 55.4238H103.866C104.45 55.4238 104.969 55.8119 105.131 56.3618C105.326 56.9117 105.131 57.5262 104.644 57.8497L97.7036 62.8631L100.363 70.9817C100.558 71.5316 100.363 72.1462 99.8766 72.502C99.6496 72.6637 99.3577 72.7607 99.0658 72.7607ZM91.3465 64.4804C91.606 64.4804 91.8979 64.5774 92.1574 64.7392L96.536 67.909L94.8818 62.7985C94.7197 62.2486 94.8818 61.634 95.3683 61.2782L99.7469 58.1084H94.3629C93.7791 58.1084 93.2601 57.7203 93.0655 57.2028L91.379 52.0599L89.7248 57.2028C89.5627 57.7526 89.0437 58.1084 88.4599 58.1084H83.0759L87.4545 61.2782C87.9086 61.634 88.1032 62.2162 87.941 62.7985L86.2869 67.909L90.633 64.7715C90.86 64.6098 91.1519 64.5127 91.4438 64.5127L91.3465 64.4804Z" fill="black"></path>
        <path d="M68.1256 35.8556C67.8337 35.8556 67.5742 35.7909 67.3147 35.5968L60.3739 30.5833L53.433 35.5968C52.9465 35.9526 52.3303 35.9526 51.8438 35.5968C51.3573 35.241 51.1627 34.6588 51.3573 34.0766L54.0169 25.958L47.076 20.9445C46.6219 20.5887 46.3949 19.9742 46.5895 19.4243C46.7517 18.8744 47.303 18.4863 47.8869 18.4863H56.4494L59.109 10.3677C59.2711 9.81783 59.8225 9.42969 60.4063 9.42969C60.9901 9.42969 61.5091 9.81783 61.7037 10.3677L64.3632 18.4863H72.9258C73.5096 18.4863 74.0285 18.8744 74.2231 19.4243C74.3853 19.9742 74.2231 20.5887 73.7366 20.9445L66.7958 25.958L69.4554 34.0766C69.65 34.6265 69.4554 35.241 68.9689 35.5968C68.7094 35.7585 68.4499 35.8556 68.158 35.8556H68.1256ZM60.4063 27.5752C60.6982 27.5752 60.9577 27.6723 61.1847 27.834L65.5633 31.0038L63.9092 25.8933C63.7146 25.3434 63.9092 24.7289 64.3957 24.3731L68.7418 21.2033H63.3578C62.774 21.2033 62.255 20.8151 62.0604 20.2653L60.4063 15.1548L58.7522 20.2653C58.5576 20.8151 58.0711 21.2033 57.4548 21.2033H52.0708L56.417 24.3731C56.9035 24.7289 57.0981 25.3111 56.9035 25.8933L55.2493 31.0038L59.5955 27.834C59.8549 27.6723 60.1144 27.5752 60.4063 27.5752Z" fill="black"></path>
        <path d="M69.9066 110.572C69.5498 110.572 69.2255 110.443 68.966 110.184C50.6409 91.8768 75.2906 64.6422 75.5501 64.3835C76.0366 63.8336 76.8799 63.8013 77.4637 64.2865C78.0151 64.7716 78.0475 65.6449 77.5286 66.1948C77.3015 66.4536 54.3708 91.8121 70.8796 108.276C71.3986 108.793 71.3986 109.667 70.8796 110.184C70.6202 110.443 70.2634 110.572 69.9391 110.572H69.9066Z" fill="black"></path>
        <path d="M80.9379 110.575C80.419 110.575 79.9325 110.284 79.7054 109.766C70.4942 89.1625 88.8518 77.4213 89.0464 77.3242C89.6951 76.9038 90.5059 77.1302 90.8951 77.7447C91.2843 78.3593 91.0897 79.2003 90.4735 79.5884C89.7924 80.0089 73.9646 90.2299 82.1704 108.667C82.4947 109.346 82.1704 110.154 81.4893 110.446C81.3271 110.51 81.1325 110.575 80.9379 110.575Z" fill="black"></path>
        <path d="M94.1742 110.576C93.7201 110.576 93.2336 110.318 93.0066 109.897C89.9254 104.528 89.0496 99.5791 90.4119 95.1155C92.293 88.9699 97.7419 86.1559 97.9689 86.0589C98.6501 85.7031 99.4609 85.9942 99.7852 86.6734C100.11 87.3203 99.8501 88.129 99.169 88.4524C99.1041 88.4524 94.4985 90.8783 92.9741 95.9241C91.8714 99.6115 92.6498 103.881 95.3418 108.571C95.6986 109.218 95.504 110.027 94.8553 110.382C94.6283 110.512 94.4012 110.576 94.1742 110.576Z" fill="black"></path>
        <path d="M107.374 86.4133C104.228 86.4133 101.633 83.8257 101.633 80.6559C101.633 77.486 104.228 74.8984 107.374 74.8984C110.52 74.8984 113.147 77.4537 113.147 80.6559C113.147 83.858 110.585 86.4133 107.374 86.4133ZM107.374 77.6154C105.687 77.6154 104.325 78.9739 104.325 80.6559C104.325 82.3378 105.687 83.6963 107.374 83.6963C109.06 83.6963 110.455 82.3378 110.455 80.6559C110.455 78.9739 109.093 77.6154 107.374 77.6154Z" fill="black"></path>
        <path d="M102.96 100.445H107.371V96.0464H102.96V100.445Z" fill="black"></path>
        <path d="M89.7296 36.6953H94.1406V32.2964H89.7296V36.6953Z" fill="black"></path>
        <path d="M34.6554 23.5H39.0664V19.1011H34.6554V23.5Z" fill="black"></path>
        <path d="M25.8312 41.0938H30.2422V36.6948H25.8312V41.0938Z" fill="black"></path>
        <path d="M65.533 66.6157C65.3384 66.6157 65.1438 66.6157 64.9491 66.4863C64.268 66.1629 63.9761 65.3543 64.3005 64.7074L79.739 31.7478C80.0309 31.0685 80.8417 30.7774 81.5228 31.1009C82.204 31.4243 82.4959 32.233 82.1715 32.8799L66.733 65.8394C66.506 66.3246 66.0195 66.6157 65.533 66.6157Z" fill="black"></path>
        <path d="M56.681 66.6122C56.1621 66.6122 55.6756 66.3211 55.4486 65.8359L40.0101 32.8763C39.6857 32.1971 40.0101 31.4208 40.6587 31.0974C41.3398 30.8063 42.1183 31.0974 42.4426 31.7443L57.8811 64.7038C58.2054 65.3831 57.8811 66.1917 57.2324 66.4828C57.0378 66.5798 56.8432 66.6122 56.6486 66.6122H56.681Z" fill="black"></path>
        <path d="M61.0876 57.8152C60.3416 57.8152 59.7578 57.2007 59.7578 56.4567V41.0605C59.7578 40.3166 60.3416 39.7344 61.0876 39.7344C61.8336 39.7344 62.4498 40.3489 62.4498 41.0605V56.4567C62.4498 57.2007 61.8336 57.8152 61.0876 57.8152Z" fill="black"></path>
    </g>
    <defs>
        <clipPath id="clip0_987_2441">
            <rect width="106.286" height="101.143" fill="white" transform="translate(6.85938 9.42969)"></rect>
        </clipPath>
    </defs>
</svg>