<svg width="120" height="120" viewBox="0 0 120 120" fill="none" xmlns="http://www.w3.org/2000/svg">
    <g clip-path="url(#clip0_987_2419)">
        <path d="M59.4657 8.57031C59.0499 8.57031 58.7109 8.89371 58.7109 9.29396V26.0387C58.7109 26.4373 59.0482 26.7623 59.4657 26.7623C59.8831 26.7623 60.2204 26.4389 60.2204 26.0387V9.29396C60.2204 8.89531 59.8831 8.57031 59.4657 8.57031Z" fill="black" stroke="black" stroke-width="0.5"></path>
        <path d="M54.1779 27.0937C54.3115 27.3434 54.5753 27.4875 54.8508 27.4875C54.966 27.4875 55.0829 27.4619 55.1931 27.4075C55.5638 27.2266 55.7107 26.7911 55.522 26.4341L50.6764 17.3324C50.4877 16.977 50.0335 16.8345 49.6612 17.0171C49.2905 17.198 49.1436 17.6334 49.3322 17.9905L54.1779 27.0921V27.0937Z" fill="black" stroke="black" stroke-width="0.5"></path>
        <path d="M64.5905 27.0992L69.4361 17.9976C69.6248 17.6421 69.4778 17.2067 69.1072 17.0242C68.7365 16.8432 68.2823 16.9841 68.0919 17.3396L63.2463 26.4412C63.0576 26.7966 63.2046 27.2321 63.5752 27.4146C63.6854 27.469 63.8023 27.4946 63.9175 27.4946C64.1914 27.4946 64.4569 27.3505 64.5905 27.1008V27.0992Z" fill="black" stroke="black" stroke-width="0.5"></path>
        <path d="M56.284 33.4048L37.4491 28.6259C37.2554 28.5762 37.05 28.6035 36.8764 28.6995C36.7027 28.7956 36.5775 28.9541 36.5257 29.1398L27.4222 62.2514C26.7059 64.8499 27.0866 67.5603 28.4959 69.885C29.3224 71.249 30.4478 72.3809 31.7819 73.223L24.7389 103.533L21.0771 102.604C18.6259 101.982 16.1046 103.389 15.455 105.739C15.4033 105.925 15.4317 106.122 15.5319 106.288C15.632 106.455 15.7973 106.575 15.991 106.624L34.8259 111.403C34.8894 111.419 34.9545 111.427 35.0196 111.427C35.1515 111.427 35.2834 111.394 35.3986 111.33C35.5723 111.234 35.6975 111.075 35.7493 110.889C36.3972 108.539 34.9311 106.122 32.4799 105.499L28.7897 104.562L38.2656 74.872C39.8619 74.7712 41.4231 74.3181 42.8458 73.5256C45.2686 72.1744 46.9985 69.9986 47.7165 67.4002L56.82 34.2886C56.9268 33.9027 56.6864 33.5073 56.284 33.4048ZM34.3935 109.798L17.1966 105.435C17.8662 104.276 19.2955 103.651 20.6914 104.005L32.0942 106.898C33.4901 107.252 34.4101 108.474 34.3935 109.798ZM33.1562 73.9595C33.1829 73.9707 33.2096 73.9819 33.2363 73.9931C33.3298 74.0331 33.425 74.0732 33.5202 74.1116C33.5819 74.1356 33.6454 74.1596 33.7072 74.1836C33.7907 74.2156 33.8742 74.2477 33.9593 74.2765C34.0445 74.3069 34.1313 74.3341 34.2165 74.3613C34.2816 74.3821 34.3467 74.4046 34.4135 74.4254C34.5688 74.4718 34.7257 74.5166 34.8844 74.5567C35.0196 74.5919 35.1565 74.6223 35.2935 74.6511C35.3268 74.6575 35.3602 74.6655 35.3936 74.6719C35.5089 74.6959 35.6241 74.7168 35.7393 74.7376C35.761 74.7408 35.7844 74.7456 35.8061 74.7488C36.1016 74.7968 36.3972 74.8336 36.6927 74.8576L27.3304 104.194L26.1983 103.908L33.1562 73.9611V73.9595ZM46.2571 67.032C45.6426 69.2574 44.1615 71.1193 42.086 72.2768C40.6818 73.0597 39.1189 73.4552 37.5359 73.4472C37.5359 73.4472 37.5326 73.4472 37.5309 73.4472C37.1686 73.4456 36.8063 73.4216 36.4456 73.3767C36.4055 73.3719 36.3654 73.3671 36.3254 73.3607C36.1884 73.3415 36.0515 73.3207 35.9163 73.2951C35.8729 73.2871 35.8278 73.2807 35.7844 73.2711C35.6124 73.2374 35.4404 73.2006 35.2701 73.1574C35.1014 73.1142 34.9361 73.0661 34.7708 73.0149C34.7274 73.0021 34.6857 72.9861 34.6439 72.9733C34.517 72.9316 34.3901 72.8868 34.2649 72.8388C34.2248 72.8244 34.1864 72.8084 34.1463 72.794C34.0011 72.7363 33.8558 72.6755 33.7139 72.6115C33.7022 72.605 33.6888 72.6002 33.6771 72.5954C33.5118 72.5186 33.3482 72.4385 33.1879 72.3521C33.1845 72.3505 33.1812 72.3489 33.1779 72.3473C31.787 71.6028 30.6231 70.5142 29.8016 69.1597C28.5944 67.1697 28.2688 64.8483 28.8832 62.6229L31.4079 53.4412L49.964 53.5597L46.2604 67.0304L46.2571 67.032ZM50.358 52.1172L31.802 51.9987L37.7931 30.2109L55.1686 34.6184L50.358 52.1156V52.1172Z" fill="black" stroke="black" stroke-width="0.5"></path>
        <path d="M44.2759 58.2572C44.0272 58.1947 43.7683 58.2284 43.5463 58.3532C43.3242 58.4781 43.1672 58.6766 43.1021 58.9152C42.9669 59.4067 43.2758 59.9126 43.7884 60.0407C43.8702 60.0615 43.952 60.0711 44.0338 60.0711C44.2025 60.0711 44.3678 60.0279 44.5181 59.9446C44.7401 59.8197 44.8971 59.6212 44.9622 59.3827C45.0273 59.1441 44.9923 58.896 44.862 58.683C44.7318 58.4701 44.5247 58.3196 44.2759 58.2572ZM44.5982 59.2914C44.5581 59.4355 44.463 59.5572 44.3277 59.6324C44.1925 59.7077 44.0355 59.7285 43.8852 59.6901C43.7349 59.6516 43.608 59.5604 43.5296 59.4307C43.4511 59.301 43.4294 59.1505 43.4695 59.0064C43.5095 58.8623 43.6047 58.7407 43.74 58.6654C43.8301 58.6142 43.932 58.5886 44.0338 58.5886C44.0839 58.5886 44.134 58.595 44.1824 58.6078C44.3327 58.6462 44.4596 58.7375 44.5381 58.8671C44.6166 58.9968 44.6383 59.1473 44.5982 59.2914Z" fill="black" stroke="black" stroke-width="0.5"></path>
        <path d="M42.8049 56.338C42.845 56.3476 42.8867 56.3524 42.9268 56.3524C43.1405 56.3524 43.3359 56.2147 43.3927 56.0082C43.4594 55.7617 43.3058 55.5103 43.0487 55.4447C42.7932 55.3806 42.5294 55.5279 42.4609 55.7745C42.3941 56.021 42.5478 56.2724 42.8049 56.338ZM42.6446 55.8209C42.6797 55.6944 42.7982 55.6112 42.9268 55.6112C42.9518 55.6112 42.9752 55.6144 43.0003 55.6208C43.1555 55.6592 43.2491 55.8129 43.209 55.9634C43.1889 56.0354 43.1405 56.0963 43.0737 56.1347C43.0069 56.1731 42.9285 56.1827 42.8516 56.1635C42.6964 56.1251 42.6029 55.9714 42.6429 55.8209H42.6446Z" fill="black" stroke="black" stroke-width="0.5"></path>
        <path d="M42.1792 61.5109C41.4662 61.3316 40.7348 61.7414 40.5478 62.425C40.3608 63.1087 40.7883 63.8099 41.5013 63.9892C41.6148 64.018 41.7284 64.0308 41.8402 64.0308C42.433 64.0308 42.9757 63.6498 43.1343 63.0734C43.2245 62.742 43.176 62.3978 42.9957 62.1016C42.8154 61.8054 42.5265 61.5957 42.1809 61.5093L42.1792 61.5109ZM42.7686 62.9838C42.635 63.4753 42.1091 63.7683 41.5964 63.6402C41.0855 63.5121 40.7766 63.0078 40.9118 62.5163C41.0254 62.1032 41.4144 61.8295 41.8402 61.8295C41.9204 61.8295 42.0022 61.8391 42.084 61.8599C42.3311 61.9223 42.5399 62.0728 42.6684 62.2857C42.797 62.4987 42.8337 62.7452 42.7686 62.9838Z" fill="black" stroke="black" stroke-width="0.5"></path>
        <path d="M37.2306 69.1358C37.0135 69.0814 36.7881 69.1118 36.5944 69.2191C36.4007 69.328 36.2638 69.5009 36.207 69.709C36.0901 70.1381 36.359 70.5783 36.8048 70.6904C36.8749 70.708 36.9467 70.716 37.0169 70.716C37.3892 70.716 37.7298 70.4759 37.8284 70.1156C37.8851 69.9075 37.8534 69.6914 37.7415 69.5057C37.628 69.3199 37.4477 69.1887 37.2306 69.1342V69.1358ZM37.4644 70.026C37.4326 70.1397 37.3575 70.2357 37.2506 70.295C37.1438 70.3542 37.0202 70.3718 36.9016 70.3414C36.6562 70.2789 36.5076 70.0372 36.5727 69.8018C36.6044 69.6882 36.6796 69.5921 36.7864 69.5329C36.8582 69.4929 36.9384 69.472 37.0185 69.472C37.0569 69.472 37.097 69.4768 37.1371 69.4865C37.2556 69.5169 37.3558 69.5889 37.4176 69.6914C37.4794 69.7938 37.4961 69.9123 37.466 70.026H37.4644Z" fill="black" stroke="black" stroke-width="0.5"></path>
        <path d="M38.7414 56.4932C38.1937 56.3555 37.631 56.6709 37.4874 57.1961C37.4173 57.4506 37.4557 57.7164 37.5943 57.9421C37.7329 58.1695 37.9549 58.3312 38.2204 58.3984C38.3072 58.4208 38.3941 58.4304 38.4809 58.4304C38.9367 58.4304 39.3542 58.1374 39.4744 57.6956C39.5445 57.441 39.5061 57.1753 39.3675 56.9495C39.229 56.7222 39.0069 56.5605 38.7414 56.4932ZM39.1104 57.6043C39.0202 57.9373 38.6629 58.1358 38.3173 58.0494C38.1486 58.0078 38.0084 57.9053 37.9215 57.7612C37.8347 57.6171 37.8097 57.449 37.8547 57.2889C37.9316 57.0087 38.1954 56.823 38.4842 56.823C38.5393 56.823 38.5944 56.8294 38.6496 56.8438C38.8182 56.8855 38.9585 56.9879 39.0453 57.132C39.1321 57.2761 39.1572 57.4442 39.1137 57.6043H39.1104Z" fill="black" stroke="black" stroke-width="0.5"></path>
        <path d="M84.5475 60.2185C84.6127 60.457 84.7713 60.6556 84.9917 60.7804C85.1403 60.8637 85.3073 60.9069 85.4759 60.9069C85.5578 60.9069 85.6396 60.8973 85.7214 60.8765C85.9702 60.814 86.1772 60.662 86.3075 60.4506C86.4377 60.2377 86.4728 59.9895 86.4077 59.751C86.2724 59.2595 85.7464 58.9633 85.2338 59.093C84.985 59.1554 84.778 59.3075 84.6477 59.5188C84.5175 59.7318 84.4824 59.9799 84.5475 60.2185ZM84.9733 59.7014C85.0518 59.5717 85.1787 59.4804 85.329 59.442C85.6396 59.3636 85.9602 59.5429 86.042 59.8422C86.0821 59.9863 86.0603 60.1384 85.9819 60.2665C85.9034 60.3962 85.7765 60.4874 85.6262 60.5259C85.4759 60.5643 85.3173 60.5435 85.1837 60.4682C85.0485 60.393 84.9533 60.2713 84.9132 60.1272C84.8731 59.9831 84.8949 59.831 84.9733 59.703V59.7014Z" fill="black" stroke="black" stroke-width="0.5"></path>
        <path d="M79.1661 54.2432C79.0993 53.9967 78.8355 53.8494 78.5783 53.9134C78.4547 53.9438 78.3496 54.0207 78.2844 54.1263C78.2193 54.232 78.2026 54.3569 78.2343 54.4754C78.2911 54.6819 78.4865 54.8196 78.7002 54.8196C78.7403 54.8196 78.782 54.8148 78.8221 54.8052C79.0792 54.7411 79.2329 54.4882 79.1661 54.2416V54.2432ZM78.418 54.4305C78.398 54.3585 78.4097 54.2832 78.4481 54.2176C78.4881 54.1536 78.5499 54.1071 78.6267 54.0879C78.782 54.0479 78.9423 54.1375 78.9841 54.288C79.0258 54.4369 78.9306 54.5906 78.7753 54.6306C78.6184 54.6707 78.4598 54.5794 78.418 54.4305Z" fill="black" stroke="black" stroke-width="0.5"></path>
        <path d="M79.7172 64.3296C79.3715 64.416 79.0826 64.6274 78.9023 64.9219C78.722 65.2181 78.6719 65.5623 78.7637 65.8937C78.9207 66.4685 79.4633 66.8511 80.0578 66.8511C80.1697 66.8511 80.2832 66.8383 80.3967 66.8095C81.1097 66.6302 81.5372 65.929 81.3502 65.2453C81.1632 64.5617 80.4318 64.1519 79.7188 64.3312L79.7172 64.3296ZM80.2999 66.4589C79.7873 66.587 79.263 66.2924 79.1277 65.8025C79.0626 65.5655 79.0977 65.3174 79.2279 65.1045C79.3565 64.8915 79.5652 64.741 79.8123 64.6786C79.8941 64.6578 79.976 64.6482 80.0561 64.6482C80.4819 64.6482 80.871 64.9219 80.9845 65.335C81.1181 65.8265 80.8108 66.3292 80.2999 66.4589Z" fill="black" stroke="black" stroke-width="0.5"></path>
        <path d="M83.4232 70.6075C83.5534 70.6812 83.6987 70.718 83.8456 70.718C83.9174 70.718 83.9892 70.7084 84.0593 70.6908C84.5068 70.5787 84.7757 70.1385 84.6571 69.7094C84.5402 69.2803 84.081 69.0226 83.6335 69.1362C83.4165 69.1907 83.2361 69.3219 83.1226 69.5077C83.0091 69.6934 82.979 69.9095 83.0358 70.1176C83.0925 70.3258 83.2295 70.4987 83.4232 70.6075ZM83.4482 69.6902C83.51 69.5877 83.6102 69.5157 83.7287 69.4852C83.7671 69.4756 83.8072 69.4708 83.8456 69.4708C84.051 69.4708 84.238 69.6021 84.2914 69.8006C84.3232 69.9143 84.3065 70.0344 84.243 70.1353C84.1812 70.2377 84.081 70.3098 83.9625 70.3402C83.8439 70.3706 83.7187 70.3546 83.6135 70.2937C83.5066 70.2345 83.4315 70.1385 83.3998 70.0248C83.3681 69.9111 83.3864 69.791 83.4482 69.6902Z" fill="black" stroke="black" stroke-width="0.5"></path>
        <path d="M83.1379 56.3998C83.0677 56.1452 82.8991 55.9323 82.662 55.7994C82.4249 55.6665 82.1494 55.6297 81.8839 55.6969C81.3362 55.8346 81.0073 56.3741 81.1509 56.8993C81.221 57.1538 81.3896 57.3668 81.6267 57.4996C81.787 57.5893 81.964 57.6341 82.1427 57.6341C82.2295 57.6341 82.318 57.6229 82.4049 57.6021C82.6703 57.5349 82.8924 57.3732 83.031 57.1458C83.1696 56.9185 83.208 56.6543 83.1379 56.3998ZM82.7054 56.9633C82.6186 57.1074 82.4767 57.2099 82.3097 57.2515C82.141 57.2931 81.9674 57.2707 81.8171 57.1858C81.6668 57.1026 81.56 56.9665 81.5165 56.8064C81.4264 56.4734 81.6334 56.1324 81.9807 56.0459C82.1494 56.0043 82.323 56.0267 82.4733 56.11C82.6236 56.1932 82.7305 56.3293 82.7739 56.4894C82.8173 56.6511 82.7939 56.8176 82.7071 56.9617L82.7054 56.9633Z" fill="black" stroke="black" stroke-width="0.5"></path>
        <path d="M105.406 105.739C104.758 103.389 102.235 101.983 99.7839 102.604L96.1221 103.533L89.079 73.2182C92.7291 70.9016 94.6193 66.5277 93.4388 62.2515L84.3353 29.1398C84.2835 28.9541 84.1583 28.7956 83.9846 28.6995C83.811 28.6035 83.6056 28.5762 83.4119 28.6259L64.577 33.4048C64.1746 33.5073 63.9341 33.9027 64.041 34.2886L73.1462 67.4018C73.8625 70.0002 75.5924 72.176 78.0169 73.5272C79.4395 74.3197 81.0007 74.7744 82.597 74.8736L92.0729 104.564L88.3828 105.501C87.1956 105.802 86.202 106.528 85.5842 107.547C84.9664 108.565 84.7994 109.753 85.1134 110.891C85.2035 111.215 85.5074 111.429 85.8414 111.429C85.9048 111.429 85.9699 111.421 86.0351 111.405L104.87 106.626C105.272 106.524 105.513 106.128 105.406 105.742V105.739ZM87.7048 73.9579L94.6627 103.904L93.5306 104.191L84.1683 74.8544C84.4638 74.8304 84.7594 74.7936 85.0549 74.7456C85.0766 74.7424 85.0983 74.7376 85.12 74.7344C85.2353 74.7152 85.3521 74.6927 85.4674 74.6687C85.5007 74.6623 85.5341 74.6559 85.5675 74.6479C85.7045 74.6191 85.8397 74.5871 85.9766 74.5535C86.1386 74.5118 86.3006 74.467 86.4592 74.419C86.5126 74.403 86.5661 74.3853 86.6195 74.3677C86.7247 74.3341 86.8299 74.3005 86.9334 74.2637C86.9952 74.2413 87.0553 74.2188 87.1154 74.1964C87.2106 74.1612 87.3058 74.1244 87.4009 74.086C87.4594 74.0619 87.5178 74.0379 87.5763 74.0123C87.618 73.9947 87.6614 73.9771 87.7032 73.9595L87.7048 73.9579ZM83.0679 30.2093L89.059 51.9971L77.5026 52.0708C77.4993 52.0099 77.4909 51.9491 77.4742 51.8866C77.4141 51.6641 77.2655 51.4784 77.0601 51.3631C76.8531 51.2479 76.6126 51.2158 76.3805 51.2735C76.1484 51.3311 75.9547 51.4736 75.8345 51.6705C75.7577 51.797 75.7193 51.9379 75.716 52.082L70.5046 52.1156L65.6941 34.6184L83.0696 30.2109L83.0679 30.2093ZM77.2488 52.0724L75.9664 52.0804C75.9698 51.9811 75.9965 51.8818 76.0516 51.7938C76.1384 51.6513 76.277 51.5504 76.444 51.5088C76.611 51.4672 76.7829 51.4896 76.9315 51.5729C77.0802 51.6561 77.1854 51.789 77.2288 51.9491C77.2405 51.9907 77.2471 52.0323 77.2488 52.0724ZM74.6039 67.032L70.9004 53.5597L89.4564 53.4412L91.9811 62.6229C93.0631 66.5469 91.1295 70.5654 87.5562 72.4113C87.451 72.4658 87.3442 72.5202 87.2356 72.5698C87.1789 72.597 87.1187 72.6227 87.062 72.6483C86.9601 72.6931 86.8583 72.7363 86.7547 72.778C86.698 72.8004 86.6395 72.8228 86.5828 72.8452C86.4709 72.8868 86.3557 72.9268 86.2421 72.9653C86.192 72.9813 86.1436 72.9989 86.0935 73.0149C85.9282 73.0661 85.7612 73.1158 85.5943 73.1574C85.4239 73.2006 85.252 73.2374 85.08 73.2711C85.0349 73.2791 84.9915 73.2871 84.9464 73.2951C84.8111 73.3191 84.6742 73.3415 84.539 73.3591C84.4989 73.3639 84.4588 73.3703 84.4171 73.3751C84.0564 73.4184 83.6941 73.444 83.3317 73.4456C83.3317 73.4456 83.3284 73.4456 83.3267 73.4456C81.7438 73.4536 80.1809 73.0581 78.7766 72.2752C76.7011 71.1177 75.22 69.2558 74.6072 67.0304L74.6039 67.032ZM86.4659 109.798C86.4575 109.268 86.6011 108.743 86.885 108.272C87.2991 107.588 87.967 107.1 88.7651 106.897L93.2117 105.768L93.9163 105.589L100.166 104.002C100.43 103.935 100.696 103.903 100.956 103.903C102.075 103.903 103.118 104.492 103.661 105.432L86.4642 109.794L86.4659 109.798Z" fill="black" stroke="black" stroke-width="0.5"></path>
    </g>
    <defs>
        <clipPath id="clip0_987_2419">
            <rect width="90" height="102.857" fill="white" transform="translate(15.4297 8.57031)"></rect>
        </clipPath>
    </defs>
</svg>