<svg width="120" height="120" viewBox="0 0 120 120" fill="none" xmlns="http://www.w3.org/2000/svg">
    <path fill-rule="evenodd" clip-rule="evenodd" d="M39.7447 80.2576C43.5545 94.2615 56.3708 104.573 71.5788 104.573C89.7879 104.573 104.573 89.7879 104.573 71.5788C104.573 56.3725 94.2615 43.5545 80.2576 39.7463C76.4477 25.7391 63.6297 15.4297 48.4234 15.4297C30.2144 15.4297 15.4297 30.2144 15.4297 48.4234C15.4297 63.6297 25.7391 76.4477 39.7447 80.2576ZM47.4763 80.6677C46.5687 78.2777 46.012 75.7181 45.8638 73.0514C45.8325 72.5638 45.8193 72.073 45.8193 71.5788C45.8193 57.3624 57.3608 45.8209 71.5772 45.8209C71.6249 45.8209 71.6727 45.8209 71.7205 45.8209C71.5327 44.126 71.1637 42.4839 70.6334 40.9174C54.1801 41.4132 40.9701 54.8917 40.9026 71.4487V71.4569V71.4783L40.8993 71.5936C40.8993 72.0318 40.9092 72.4699 40.9273 72.9097L40.9306 72.9888C40.9339 73.053 40.9372 73.1156 40.9405 73.1798C40.9487 73.3281 40.957 73.4747 40.9668 73.6213C41.0887 75.4726 41.3753 77.2812 41.8168 79.0304V79.0321C45.144 92.3689 57.2142 102.26 71.5772 102.26C88.5097 102.26 102.257 88.513 102.257 71.5805C102.257 57.8813 93.2567 46.2657 80.8538 42.3356V42.3455C80.8654 42.3949 80.8736 42.4443 80.8835 42.4937V42.5003L80.8884 42.5234L80.9032 42.6057L80.9098 42.6436L80.9131 42.6667L80.9181 42.6897L80.9247 42.7293L80.9378 42.8083L80.9428 42.833V42.8413C80.9527 42.8907 80.9609 42.9401 80.9691 42.9912V43.0011L80.9741 43.0258L80.9872 43.1015L80.9938 43.1444L80.9971 43.1674L81.0004 43.1888L81.007 43.2251L81.0218 43.3157L81.0251 43.3354V43.3404C81.0334 43.3914 81.0416 43.4408 81.0498 43.4919V43.5018L81.0548 43.5248L81.0647 43.5973L81.0712 43.6467L81.0745 43.6698L81.0778 43.6863L81.0828 43.7208L81.0993 43.8378C81.1058 43.8905 81.1141 43.9432 81.1207 43.9959V44.0058L81.124 44.0239L81.1338 44.0964L81.1421 44.1573V44.1738L81.1454 44.1853C81.1585 44.2924 81.1717 44.3995 81.1849 44.5065V44.5131L81.1865 44.523L81.1948 44.5988L81.203 44.6778V44.6844V44.6877C81.3183 45.704 81.3875 46.7335 81.4073 47.7761C90.7514 51.6386 97.3317 60.8477 97.3317 71.5821C97.3317 85.7985 85.7903 97.34 71.5739 97.34C60.5562 97.34 51.1461 90.4088 47.473 80.671L47.4763 80.6677ZM81.3628 50.2764C80.4388 67.0113 67.0146 80.4371 50.2748 81.3644C53.9825 89.4222 62.1309 95.0208 71.5772 95.0208C84.5154 95.0208 95.0208 84.5171 95.0208 71.5772C95.0208 62.1309 89.4222 53.9825 81.3644 50.2748L81.3628 50.2764ZM79.1013 48.3098C79.0914 45.7814 78.7768 43.3255 78.1855 40.9751C78.1855 40.9751 78.1855 40.9734 78.1855 40.9718C74.8583 27.6366 62.7864 17.7456 48.4234 17.7456C31.4925 17.7456 17.7456 31.4909 17.7456 48.4234C17.7456 62.1226 26.7438 73.7382 39.1484 77.6683V77.6584C39.1369 77.609 39.1286 77.5596 39.1188 77.5101V77.5036L39.1138 77.4805L39.099 77.3981L39.0924 77.3603L39.0875 77.3372L39.0842 77.3141L39.0776 77.2746L39.0644 77.1955L39.0595 77.1708V77.1626C39.0496 77.1132 39.0413 77.0638 39.0331 77.0127V77.0028L39.0265 76.9781L39.0133 76.9024L39.0068 76.8595L39.0035 76.8365L39.0002 76.8151L38.9936 76.7788L38.9788 76.6882L38.9755 76.6685V76.6635C38.9672 76.6125 38.959 76.563 38.9508 76.512V76.5021L38.9458 76.479L38.9359 76.4066L38.9293 76.3572L38.926 76.3357L38.9228 76.3193L38.9178 76.2847L38.9013 76.1743V76.1677C38.8931 76.115 38.8865 76.0623 38.8783 76.0096V75.9997L38.875 75.9816L38.8651 75.9108L38.8569 75.8498V75.8334L38.8536 75.8218C38.8404 75.7148 38.8272 75.6077 38.814 75.5006V75.4941L38.8124 75.4842L38.8042 75.4084L38.7959 75.3293V75.3228V75.3195C38.6806 74.3032 38.6114 73.2737 38.5917 72.2311C29.2475 68.3686 22.6672 59.1594 22.6672 48.4251C22.6672 34.2087 34.2087 22.6672 48.4251 22.6672C59.4427 22.6672 68.8528 29.5983 72.5259 39.3362C73.4318 41.7262 73.9902 44.2858 74.1385 46.9525C74.1698 47.4401 74.1829 47.9309 74.1829 48.4251C74.1829 62.6415 62.6415 74.1829 48.4251 74.1829C48.3773 74.1829 48.3295 74.1829 48.2818 74.1829C48.4695 75.8778 48.8385 77.5184 49.3689 79.0865C65.8221 78.5907 79.0321 65.1122 79.0996 48.5552C79.0996 48.8632 79.0996 48.5272 79.0996 48.5272L79.1029 48.4119V48.3098H79.1013ZM71.8638 48.1368C71.7682 48.1368 71.6727 48.1352 71.5755 48.1352C58.6373 48.1352 48.1319 58.6389 48.1319 71.5788C48.1319 71.6744 48.1319 71.7715 48.1335 71.8671C48.2291 71.8671 48.3246 71.8687 48.4218 71.8687C61.36 71.8687 71.8654 61.3649 71.8654 48.4251C71.8654 48.3295 71.8654 48.234 71.8638 48.1368ZM69.7241 38.6378C66.0164 30.58 57.8681 24.9814 48.4218 24.9814C35.4835 24.9814 24.9781 35.4852 24.9781 48.4251C24.9781 57.8714 30.5767 66.0197 38.6345 69.7274C39.5585 52.9926 52.9827 39.5668 69.7225 38.6394L69.7241 38.6378Z" fill="black"></path>
</svg>